<mxfile host="app.diagrams.net" modified="2023-11-15T10:35:02.391Z" agent="Mozilla/5.0 (Windows NT 10.0; Win64; x64; rv:109.0) Gecko/20100101 Firefox/119.0" version="22.1.0" etag="hw26C5cp2osKLVCf-ZKJ" type="github">
  <diagram name="Page-1" id="lY7qTwyXVuQ3tZfToVHR">
    <mxGraphModel>
      <root>
        <mxCell id="0" />
        <mxCell id="1" parent="0" />
      </root>
    </mxGraphModel>
  </diagram>
</mxfile>
